<?xml version="1.0" encoding="UTF-8" standalone="no"?>
<!DOCTYPE svg PUBLIC "-//W3C//DTD SVG 1.1//EN"
 "http://www.w3.org/Graphics/SVG/1.1/DTD/svg11.dtd">
<!-- Generated by graphviz version 2.40.1 (20161225.0304)
 -->
<!-- Title: dependencies Pages: 1 -->
<svg width="899pt" height="284pt"
 viewBox="0.00 0.00 899.00 284.00" xmlns="http://www.w3.org/2000/svg" xmlns:xlink="http://www.w3.org/1999/xlink">
<g id="graph0" class="graph" transform="scale(1 1) rotate(0) translate(4 280)">
<title>dependencies</title>
<polygon fill="#ffffff" stroke="transparent" points="-4,4 -4,-280 895,-280 895,4 -4,4"/>
<text text-anchor="start" x="424.5091" y="-42.4" font-family="sans-serif" font-weight="bold" font-size="14.00" fill="#000000">Legend</text>
<polygon fill="#ffffb3" stroke="transparent" points="211.5,-10 211.5,-30 231.5,-30 231.5,-10 211.5,-10"/>
<text text-anchor="start" x="235.129" y="-15.4" font-family="sans-serif" font-size="14.00" fill="#000000"> &#160;Declarations</text>
<polygon fill="#8dd3c7" stroke="transparent" points="324.5,-10 324.5,-30 344.5,-30 344.5,-10 324.5,-10"/>
<text text-anchor="start" x="348.2251" y="-15.4" font-family="sans-serif" font-size="14.00" fill="#000000"> &#160;Module</text>
<polygon fill="#80b1d3" stroke="transparent" points="410.5,-10 410.5,-30 430.5,-30 430.5,-10 410.5,-10"/>
<text text-anchor="start" x="434.2812" y="-15.4" font-family="sans-serif" font-size="14.00" fill="#000000"> &#160;Bootstrap</text>
<polygon fill="#fdb462" stroke="transparent" points="507.5,-10 507.5,-30 527.5,-30 527.5,-10 507.5,-10"/>
<text text-anchor="start" x="531.1732" y="-15.4" font-family="sans-serif" font-size="14.00" fill="#000000"> &#160;Providers</text>
<polygon fill="#fb8072" stroke="transparent" points="603.5,-10 603.5,-30 623.5,-30 623.5,-10 603.5,-10"/>
<text text-anchor="start" x="627.2258" y="-15.4" font-family="sans-serif" font-size="14.00" fill="#000000"> &#160;Exports</text>
<g id="clust1" class="cluster">
<title>cluster_AppModule</title>
<polygon fill="none" stroke="#000000" stroke-dasharray="1,5" points="8,-70 8,-268 883,-268 883,-70 8,-70"/>
</g>
<g id="clust2" class="cluster">
<title>cluster_AppModule_declarations</title>
<polygon fill="none" stroke="#000000" points="16,-78 16,-130 875,-130 875,-78 16,-78"/>
</g>
<g id="clust11" class="cluster">
<title>cluster_AppModule_bootstrap</title>
<polygon fill="none" stroke="#000000" points="397,-208 397,-260 521,-260 521,-208 397,-208"/>
</g>
<!-- AppComponent -->
<g id="node1" class="node">
<title>AppComponent</title>
<polygon fill="#ffffb3" stroke="#000000" points="866.9399,-122 761.0601,-122 761.0601,-86 866.9399,-86 866.9399,-122"/>
<text text-anchor="middle" x="814" y="-99.8" font-family="Times,serif" font-size="14.00" fill="#000000">AppComponent</text>
</g>
<!-- AppModule -->
<g id="node7" class="node">
<title>AppModule</title>
<polygon fill="#8dd3c7" stroke="#000000" points="500.6571,-187 497.6571,-191 476.6571,-191 473.6571,-187 417.3429,-187 417.3429,-151 500.6571,-151 500.6571,-187"/>
<text text-anchor="middle" x="459" y="-164.8" font-family="Times,serif" font-size="14.00" fill="#000000">AppModule</text>
</g>
<!-- AppComponent&#45;&gt;AppModule -->
<g id="edge1" class="edge">
<title>AppComponent&#45;&gt;AppModule</title>
<path fill="none" stroke="#000000" d="M814,-122.2843C814,-143.3211 814,-175 814,-175 814,-175 510.7669,-175 510.7669,-175"/>
<polygon fill="#000000" stroke="#000000" points="510.767,-171.5001 500.7669,-175 510.7669,-178.5001 510.767,-171.5001"/>
</g>
<!-- AuswertungComponent -->
<g id="node2" class="node">
<title>AuswertungComponent</title>
<polygon fill="#ffffb3" stroke="#000000" points="742.7562,-122 593.2438,-122 593.2438,-86 742.7562,-86 742.7562,-122"/>
<text text-anchor="middle" x="668" y="-99.8" font-family="Times,serif" font-size="14.00" fill="#000000">AuswertungComponent</text>
</g>
<!-- AuswertungComponent&#45;&gt;AppModule -->
<g id="edge2" class="edge">
<title>AuswertungComponent&#45;&gt;AppModule</title>
<path fill="none" stroke="#000000" d="M668,-122.0225C668,-139.3734 668,-163 668,-163 668,-163 510.792,-163 510.792,-163"/>
<polygon fill="#000000" stroke="#000000" points="510.792,-159.5001 500.792,-163 510.7919,-166.5001 510.792,-159.5001"/>
</g>
<!-- CartComponent -->
<g id="node3" class="node">
<title>CartComponent</title>
<polygon fill="#ffffb3" stroke="#000000" points="574.9357,-122 469.0643,-122 469.0643,-86 574.9357,-86 574.9357,-122"/>
<text text-anchor="middle" x="522" y="-99.8" font-family="Times,serif" font-size="14.00" fill="#000000">CartComponent</text>
</g>
<!-- CartComponent&#45;&gt;AppModule -->
<g id="edge3" class="edge">
<title>CartComponent&#45;&gt;AppModule</title>
<path fill="none" stroke="#000000" d="M485.0554,-122.1061C485.0554,-122.1061 485.0554,-140.991 485.0554,-140.991"/>
<polygon fill="#000000" stroke="#000000" points="481.5555,-140.9909 485.0554,-150.991 488.5555,-140.991 481.5555,-140.9909"/>
</g>
<!-- MainComponent -->
<g id="node4" class="node">
<title>MainComponent</title>
<polygon fill="#ffffb3" stroke="#000000" points="451.3823,-122 340.6177,-122 340.6177,-86 451.3823,-86 451.3823,-122"/>
<text text-anchor="middle" x="396" y="-99.8" font-family="Times,serif" font-size="14.00" fill="#000000">MainComponent</text>
</g>
<!-- MainComponent&#45;&gt;AppModule -->
<g id="edge4" class="edge">
<title>MainComponent&#45;&gt;AppModule</title>
<path fill="none" stroke="#000000" d="M434.3065,-122.1061C434.3065,-122.1061 434.3065,-140.991 434.3065,-140.991"/>
<polygon fill="#000000" stroke="#000000" points="430.8065,-140.9909 434.3065,-150.991 437.8065,-140.991 430.8065,-140.9909"/>
</g>
<!-- ManagementComponent -->
<g id="node5" class="node">
<title>ManagementComponent</title>
<polygon fill="#ffffb3" stroke="#000000" points="322.4172,-122 167.5828,-122 167.5828,-86 322.4172,-86 322.4172,-122"/>
<text text-anchor="middle" x="245" y="-99.8" font-family="Times,serif" font-size="14.00" fill="#000000">ManagementComponent</text>
</g>
<!-- ManagementComponent&#45;&gt;AppModule -->
<g id="edge5" class="edge">
<title>ManagementComponent&#45;&gt;AppModule</title>
<path fill="none" stroke="#000000" d="M245,-122.0225C245,-139.3734 245,-163 245,-163 245,-163 407.2306,-163 407.2306,-163"/>
<polygon fill="#000000" stroke="#000000" points="407.2307,-166.5001 417.2306,-163 407.2306,-159.5001 407.2307,-166.5001"/>
</g>
<!-- OverlayComponent -->
<g id="node6" class="node">
<title>OverlayComponent</title>
<polygon fill="#ffffb3" stroke="#000000" points="150.4201,-122 23.5799,-122 23.5799,-86 150.4201,-86 150.4201,-122"/>
<text text-anchor="middle" x="87" y="-99.8" font-family="Times,serif" font-size="14.00" fill="#000000">OverlayComponent</text>
</g>
<!-- OverlayComponent&#45;&gt;AppModule -->
<g id="edge6" class="edge">
<title>OverlayComponent&#45;&gt;AppModule</title>
<path fill="none" stroke="#000000" d="M87,-122.2843C87,-143.3211 87,-175 87,-175 87,-175 407.05,-175 407.05,-175"/>
<polygon fill="#000000" stroke="#000000" points="407.05,-178.5001 417.05,-175 407.05,-171.5001 407.05,-178.5001"/>
</g>
<!-- AppComponent  -->
<g id="node8" class="node">
<title>AppComponent </title>
<polygon fill="#80b1d3" stroke="#000000" points="513.439,-252 404.561,-252 404.561,-216 513.439,-216 513.439,-252"/>
<text text-anchor="middle" x="459" y="-229.8" font-family="Times,serif" font-size="14.00" fill="#000000">AppComponent </text>
</g>
<!-- AppModule&#45;&gt;AppComponent  -->
<g id="edge7" class="edge">
<title>AppModule&#45;&gt;AppComponent </title>
<path fill="none" stroke="#000000" stroke-dasharray="1,5" d="M459,-187.1061C459,-187.1061 459,-205.991 459,-205.991"/>
<polygon fill="#000000" stroke="#000000" points="455.5001,-205.9909 459,-215.991 462.5001,-205.991 455.5001,-205.9909"/>
</g>
</g>
</svg>
